<svg width="72" height="52" viewBox="0 0 72 52" fill="none" xmlns="http://www.w3.org/2000/svg">
<path d="M20.2838 26.0465C20.1958 24.1071 21.743 22.4865 23.6827 22.4865H24.2428C26.0618 22.4865 27.559 23.9185 27.6416 25.7373L27.8994 31.4129C27.9875 33.3524 26.4403 34.973 24.5005 34.973H23.9405C22.1215 34.973 20.6242 33.5409 20.5416 31.7222L20.2838 26.0465Z" fill="#00D3F2"/>
<path d="M48.8843 22.4865C50.8241 22.4865 52.3713 24.1071 52.2832 26.0465L52.0255 31.7222C51.9429 33.5409 50.4456 34.973 48.6266 34.973H48.0665C46.1268 34.973 44.5796 33.3524 44.6677 31.4129L44.9254 25.7373C45.008 23.9185 46.5053 22.4865 48.3243 22.4865H48.8843Z" fill="#00D3F2"/>
<path fill-rule="evenodd" clip-rule="evenodd" d="M27.5295 0C26.0197 0 24.6905 0.995851 24.265 2.44575L23.1929 6.09923C22.9093 7.06583 22.0231 7.72973 21.0166 7.72973H20.1222C12.4882 7.75981 6.2146 13.1543 4.67132 20.2162H4.53671C1.91994 20.2162 -0.154214 22.426 0.00901536 25.04L0.576081 34.1211C0.725513 36.5141 2.7082 38.3784 5.10377 38.3784H5.61675C6.73286 46.1539 13.401 52 21.332 52H50.6682C58.5992 52 65.2673 46.1539 66.3835 38.3784H66.8962C69.2918 38.3784 71.2745 36.5141 71.4239 34.1211L71.991 25.04C72.1542 22.426 70.0801 20.2162 67.4633 20.2162H67.3289C65.7856 13.1543 59.5119 7.75984 51.8778 7.72986L51.8139 7.72973H50.9834C49.9769 7.72973 49.0907 7.06583 48.8071 6.09923L47.735 2.44575C47.3095 0.995851 45.9803 0 44.4705 0H27.5295ZM11.1513 24.4521C10.6631 19.1312 14.8478 14.5405 20.1863 14.5405H51.8139C57.1524 14.5405 61.3371 19.1312 60.8489 24.4521L59.7032 36.9386C59.2743 41.6125 55.3576 45.1892 50.6682 45.1892C50.6682 45.1892 42.6789 38.5591 36.5671 38.3784C30.0537 38.1857 21.332 45.1892 21.332 45.1892C16.6426 45.1892 12.7259 41.6125 12.297 36.9386L11.1513 24.4521Z" fill="#00BC7D"/>
</svg>
